<svg width="1024" height="277" viewBox="0 0 1024 277" fill="none" xmlns="http://www.w3.org/2000/svg">
<g clip-path="url(#clip0)">
<path d="M42.433 98.374H101.62V141.614H42.433V268.9L0 276.74V0H120.808V43.241H42.433V98.374ZM191.074 214L264.584 211V251.34L147.834 254.58V0H191.074V214ZM301.068 251.338C314.851 252.15 329.445 252.961 343.498 254.58V0H301.068V251.338ZM532.949 0L478.086 131.615L532.949 276.742C516.732 274.58 500.517 271.607 484.301 268.904L453.223 188.91L421.606 262.42C405.928 259.715 390.794 258.904 375.122 256.742L430.794 129.992L380.525 0H427.007L455.384 72.699L485.654 0L532.949 0Z" fill="#D81F26"/>
</g>
<defs>
<clipPath id="clip0">
<rect width="1024" height="276.742" fill="white"/>
</clipPath>
</defs>
</svg>
